<?xml version="1.0" encoding="UTF-8" standalone="no"?>
<!-- Created with Inkscape (http://www.inkscape.org/) -->

<svg
   width="120mm"
   height="120mm"
   viewBox="0 0 120 120"
   version="1.1"
   id="svg1"
   sodipodi:docname="fan_first_good_attempt4_onverted.svg"
   inkscape:version="1.4.2 (f4327f4, 2025-05-13)"
   xmlns:inkscape="http://www.inkscape.org/namespaces/inkscape"
   xmlns:sodipodi="http://sodipodi.sourceforge.net/DTD/sodipodi-0.dtd"
   xmlns="http://www.w3.org/2000/svg"
   xmlns:svg="http://www.w3.org/2000/svg">
  <sodipodi:namedview
     id="namedview1"
     pagecolor="#505050"
     bordercolor="#eeeeee"
     borderopacity="1"
     inkscape:showpageshadow="0"
     inkscape:pageopacity="0"
     inkscape:pagecheckerboard="0"
     inkscape:deskcolor="#505050"
     inkscape:document-units="mm"
     inkscape:zoom="1.0412"
     inkscape:cx="442.75834"
     inkscape:cy="224.26046"
     inkscape:window-width="3840"
     inkscape:window-height="2061"
     inkscape:window-x="3829"
     inkscape:window-y="-11"
     inkscape:window-maximized="1"
     inkscape:current-layer="layer1" />
  <defs
     id="defs1">
    <inkscape:path-effect
       effect="bspline"
       id="path-effect20"
       is_visible="true"
       lpeversion="1.3"
       weight="33.333333"
       steps="2"
       helper_size="0"
       apply_no_weight="true"
       apply_with_weight="true"
       only_selected="false"
       uniform="false" />
    <inkscape:path-effect
       effect="fillet_chamfer"
       id="path-effect19"
       nodesatellites_param="F,0,0,1,0,0,0,1 @ F,0,0,1,0,0,0,1 @ F,0,0,1,0,0,0,1 @ F,0,0,1,0,0,0,1"
       is_visible="true"
       lpeversion="1"
       radius="0"
       unit="px"
       method="auto"
       mode="F"
       chamfer_steps="1"
       flexible="false"
       use_knot_distance="true"
       apply_no_radius="true"
       apply_with_radius="true"
       only_selected="false"
       hide_knots="false" />
  </defs>
  <g
     inkscape:label="Layer 1"
     inkscape:groupmode="layer"
     id="layer1">
    <path
       id="path26"
       style="baseline-shift:baseline;display:inline;overflow:visible;vector-effect:none;fill:#ffffff;enable-background:accumulate;stop-color:#000000;stop-opacity:1;opacity:1"
       d="M 79.109383 4.9418172 C 74.003934 5.0938981 69.235609 6.9102973 66.064701 10.396265 C 60.880127 15.556623 58.627965 21.258261 58.250191 27.839644 C 58.240903 28.001465 58.231784 28.163191 58.223319 28.324886 C 55.165009 25.007008 51.55085 22.028735 46.894295 19.59777 L 46.855538 19.576066 L 46.816264 19.556429 C 42.237842 17.311585 37.265098 16.671745 32.597493 16.867187 C 31.041625 16.932337 29.518709 17.090283 28.056685 17.312638 C 22.208586 18.202058 17.405393 19.982766 14.406356 22.064286 L 14.367082 22.091675 L 14.329875 22.119063 C 8.4708493 26.425821 5.6899037 32.757553 5.3185384 38.700997 C 4.9487666 44.618938 6.7528213 50.333266 10.74043 53.956913 C 15.89917 59.137103 21.598832 61.388114 28.177608 61.765739 C 28.305068 61.773055 28.432617 61.780117 28.560014 61.786926 C 25.18707 64.871628 22.159498 68.520542 19.695439 73.240491 L 19.675802 73.279248 L 19.656165 73.318522 C 16.66304 79.423086 16.522438 86.230002 17.411857 92.078101 C 18.301277 97.9262 20.080436 102.72939 22.161955 105.72843 L 22.189343 105.7677 L 22.218799 105.80491 C 26.525558 111.66393 32.857288 114.44488 38.800732 114.81625 C 44.718674 115.18602 50.433001 113.38197 54.056649 109.39436 C 59.236838 104.23562 61.48785 98.535955 61.865474 91.957178 C 61.880618 91.693351 61.894425 91.42945 61.907332 91.166012 C 65.020755 94.599612 68.706896 97.68036 73.497839 100.18148 L 73.537113 100.20319 L 73.577938 100.22282 C 79.682502 103.21594 86.487868 103.35603 92.335966 102.46661 C 98.184065 101.57719 102.98726 99.796485 105.9863 97.714966 L 106.02557 97.687577 L 106.06433 97.660189 C 111.92336 93.35343 114.70482 87.021699 115.07618 81.078255 C 115.44579 75.16289 113.64239 69.451917 109.65842 65.828023 C 104.49806 60.643431 98.796436 58.391288 92.215043 58.013513 C 92.005592 58.001491 91.795873 57.990056 91.586658 57.979407 C 94.946924 54.901392 97.963342 51.262066 100.41971 46.556848 L 100.43935 46.517574 L 100.45898 46.47675 C 103.45211 40.372187 103.59271 33.566821 102.70329 27.718722 C 101.81386 21.870623 100.03471 17.067429 97.953194 14.068392 L 97.925806 14.029118 L 97.89635 13.990361 C 93.589632 8.1313324 87.257861 5.3498738 81.314417 4.9785075 C 80.574996 4.932306 79.838733 4.9200914 79.109383 4.9418172 z M 79.347611 11.949141 C 79.851003 11.928419 80.362551 11.932388 80.878784 11.964644 C 84.991742 12.221635 89.208338 14.033645 92.216593 18.093986 C 93.171436 19.484587 95.041285 23.892479 95.783301 28.77137 C 96.527142 33.662259 96.270704 39.093362 94.183398 43.368929 C 91.238052 48.987842 87.590544 52.574137 82.925688 56.045158 C 81.059327 57.433877 79.02762 58.789766 76.849056 60.214929 C 76.948128 56.167308 75.557918 52.375437 73.160909 49.402669 C 70.435563 45.591718 68.161365 41.965822 65.895719 38.530465 L 65.922074 38.509794 C 65.925695 38.514409 65.929149 38.517942 65.931376 38.519613 C 65.931633 38.519776 65.93269 38.520528 65.932926 38.520646 L 65.933443 38.520646 L 65.93396 38.520646 L 65.934477 38.520646 L 65.934993 38.520129 L 65.93551 38.519613 L 65.93551 38.519096 L 65.936027 38.518579 L 65.936027 38.518062 C 65.94872 38.450377 65.40891 37.137427 65.246147 35.326009 C 65.070335 33.369372 65.08939 30.835809 65.238395 28.240137 C 65.552753 22.763565 66.791086 19.498989 71.066463 15.279171 L 71.140877 15.205273 L 71.20909 15.128792 C 72.702498 13.469317 75.82387 12.094202 79.347611 11.949141 z M 32.850191 23.875545 C 36.639703 23.731877 40.495348 24.266862 43.701208 25.829948 C 49.324781 28.776033 52.909917 32.422629 56.382605 37.089726 C 57.77862 38.965891 59.142391 41.00942 60.576147 43.200981 C 56.642882 43.121091 52.954556 44.446593 50.029504 46.734615 L 49.962842 46.642631 C 46.063836 49.457777 42.356997 51.786364 38.847758 54.095923 C 38.85295 54.091849 38.856619 54.087903 38.858093 54.085588 C 38.858212 54.085351 38.858537 54.084253 38.85861 54.084037 L 38.85861 54.083521 L 38.85861 54.083004 L 38.858093 54.082487 L 38.857576 54.082487 L 38.85706 54.08197 L 38.856543 54.081453 L 38.856026 54.081453 C 38.78859 54.06876 37.477458 54.60857 35.66604 54.771334 C 33.709402 54.947146 31.17584 54.926487 28.580168 54.777535 C 23.103594 54.463147 19.836947 53.224843 15.617135 48.949467 L 15.544788 48.87712 L 15.466756 48.80684 C 13.570218 47.100089 12.046627 43.268564 12.304675 39.138696 C 12.561713 35.024966 14.371544 30.807185 18.4335 27.79882 C 19.824112 26.843975 24.230455 24.974643 29.109334 24.232629 C 30.331379 24.046772 31.587021 23.923435 32.850191 23.875545 z M 59.998405 50.198486 C 60.325056 50.191345 60.65515 50.200379 60.988525 50.226392 C 63.53767 50.425293 65.763372 51.575649 67.34731 53.304757 C 67.502688 53.522566 67.660082 53.741499 67.818599 53.961047 L 67.868726 53.924874 C 69.267992 55.740175 70.019576 58.067377 69.825195 60.558577 C 69.609294 63.32559 68.272338 65.711375 66.291044 67.308553 C 66.212416 67.365074 66.133734 67.421637 66.054883 67.478569 L 66.061601 67.48787 C 64.255947 68.85476 61.954571 69.585248 59.493009 69.39318 C 54.159003 68.976985 50.242212 64.397067 50.658407 59.063062 C 51.048589 54.062431 55.098641 50.305604 59.998405 50.198486 z M 43.636096 59.339014 C 43.524778 63.237927 44.795417 66.90299 47.018319 69.83088 L 46.900496 69.916146 C 49.738419 73.846697 52.082607 77.582088 54.411149 81.116496 L 54.193591 81.287028 C 54.189518 81.281836 54.185572 81.278167 54.183256 81.276693 C 54.18302 81.276574 54.181921 81.276249 54.181706 81.276176 L 54.181189 81.276176 L 54.180672 81.276176 L 54.180155 81.276693 L 54.180155 81.277209 L 54.179639 81.277726 L 54.179122 81.278243 L 54.179122 81.27876 C 54.166429 81.346196 54.706239 82.657328 54.869002 84.468746 C 55.044814 86.425383 55.025758 88.958946 54.876754 91.554618 C 54.562397 97.03119 53.324063 100.29783 49.048686 104.51765 L 48.974788 104.59 L 48.906059 104.66803 C 47.199306 106.56458 43.366233 108.08816 39.236365 107.83011 C 35.124201 107.57317 30.908765 105.76359 27.900623 101.7049 C 26.946213 100.3166 25.074229 95.906742 24.331848 91.025452 C 23.588008 86.134562 23.844445 80.701393 25.93175 76.425826 C 28.877095 70.806913 32.524606 67.223202 37.189461 63.752181 C 39.1611 62.285126 41.317194 60.853511 43.636096 59.339014 z M 91.814551 65.001717 C 97.291123 65.316075 100.55571 66.552859 104.77552 70.828235 L 104.84941 70.902132 L 104.9259 70.972412 C 106.82245 72.679165 108.34809 76.510688 108.09004 80.640556 C 107.83296 84.755079 106.02069 88.974022 101.95708 91.982499 C 100.56417 92.937777 96.159799 94.803423 91.283317 95.545072 C 86.397212 96.288229 80.970771 96.033037 76.697127 93.951371 C 71.071219 91.004916 67.483053 87.355678 64.00953 82.687459 C 62.578829 80.764678 61.182679 78.666593 59.71005 76.413424 C 63.574628 76.537542 67.212467 75.303429 70.13422 73.12887 L 70.152307 73.154191 C 74.122207 70.287858 77.892867 67.92536 81.458594 65.573775 L 81.544893 65.683846 C 81.539702 65.68792 81.536028 65.691349 81.534558 65.693665 C 81.53444 65.693901 81.534114 65.694999 81.534041 65.695215 L 81.534041 65.695732 L 81.534041 65.696248 L 81.534558 65.696765 L 81.535075 65.697282 L 81.535592 65.697282 L 81.536108 65.697799 L 81.536625 65.697799 C 81.60431 65.710492 82.91726 65.170682 84.728678 65.007918 C 86.685315 64.832107 89.218879 64.852766 91.814551 65.001717 z " />
  </g>
</svg>
