<?xml version="1.0" encoding="UTF-8" standalone="no"?>
<!-- Created with Inkscape (http://www.inkscape.org/) -->

<svg
   width="105mm"
   height="105mm"
   viewBox="0 0 105 105"
   version="1.1"
   id="svg1"
   sodipodi:docname="fan_first_good_attempt2.svg"
   inkscape:version="1.4.2 (f4327f4, 2025-05-13)"
   xmlns:inkscape="http://www.inkscape.org/namespaces/inkscape"
   xmlns:sodipodi="http://sodipodi.sourceforge.net/DTD/sodipodi-0.dtd"
   xmlns="http://www.w3.org/2000/svg"
   xmlns:svg="http://www.w3.org/2000/svg">
  <sodipodi:namedview
     id="namedview1"
     pagecolor="#505050"
     bordercolor="#eeeeee"
     borderopacity="1"
     inkscape:showpageshadow="0"
     inkscape:pageopacity="0"
     inkscape:pagecheckerboard="0"
     inkscape:deskcolor="#505050"
     inkscape:document-units="mm"
     inkscape:zoom="2.0824"
     inkscape:cx="260.75682"
     inkscape:cy="188.00423"
     inkscape:window-width="3840"
     inkscape:window-height="2061"
     inkscape:window-x="3829"
     inkscape:window-y="-11"
     inkscape:window-maximized="1"
     inkscape:current-layer="layer1" />
  <defs
     id="defs1">
    <inkscape:path-effect
       effect="bspline"
       id="path-effect20"
       is_visible="true"
       lpeversion="1.3"
       weight="33.333333"
       steps="2"
       helper_size="0"
       apply_no_weight="true"
       apply_with_weight="true"
       only_selected="false"
       uniform="false" />
    <inkscape:path-effect
       effect="fillet_chamfer"
       id="path-effect19"
       nodesatellites_param="F,0,0,1,0,0,0,1 @ F,0,0,1,0,0,0,1 @ F,0,0,1,0,0,0,1 @ F,0,0,1,0,0,0,1"
       is_visible="true"
       lpeversion="1"
       radius="0"
       unit="px"
       method="auto"
       mode="F"
       chamfer_steps="1"
       flexible="false"
       use_knot_distance="true"
       apply_no_radius="true"
       apply_with_radius="true"
       only_selected="false"
       hide_knots="false" />
  </defs>
  <g
     inkscape:label="Layer 1"
     inkscape:groupmode="layer"
     id="layer1">
    <path
       id="path26"
       style="baseline-shift:baseline;display:inline;overflow:visible;opacity:1;vector-effect:none;fill:#ffffff;enable-background:accumulate;stop-color:#000000;stop-opacity:1"
       d="M 33.69643,0.42112284 C 31.161657,0.43434584 28.604294,0.77454094 26.124282,1.4350144 19.519511,3.1939891 13.358152,7.3689174 10.176935,14.089539 4.8799262,24.193775 5.3744458,36.57734 9.2725976,46.060198 l 0.00568,0.0155 0.0062,0.01602 c 0.7572814,1.783718 1.7603894,3.539096 2.9538244,5.222421 -1.395197,0.619521 -2.7519153,1.443419 -4.0457474,2.379183 -2.2370051,1.617913 -4.2383719,3.506223 -5.3810669,5.901965 -2.90022776,5.80931 -3.41739426,12.955468 -1.659847,19.554879 1.7589739,6.604769 5.9333919,12.766129 12.6540073,15.947347 10.104243,5.297027 22.48779,4.802493 31.970659,0.904337 l 0.01602,-0.0062 0.0155,-0.0057 c 1.608328,-0.682819 3.193994,-1.565737 4.72426,-2.607593 0.575788,1.171319 1.287857,2.312641 2.080493,3.408577 1.617914,2.237008 3.506738,4.237856 5.902482,5.380546 5.80931,2.90023 12.954953,3.4179 19.554362,1.66036 6.604768,-1.75898 12.766129,-5.933901 15.947347,-12.654516 5.297034,-10.104246 4.802492,-22.489855 0.904337,-31.972726 l -0.0062,-0.0155 -0.0057,-0.01344 c -0.674352,-1.588431 -1.543775,-3.154733 -2.568836,-4.667415 1.445958,-0.626214 2.851542,-1.474243 4.189925,-2.442228 2.237006,-1.617913 4.238373,-3.50674 5.381073,-5.902482 2.90023,-5.80931 3.4174,-12.954951 1.65985,-19.554362 C 101.81226,20.004428 97.637847,13.843059 90.917226,10.661841 85.880305,8.0212947 80.27804,6.815656 74.749221,6.7592372 69.187033,6.7024779 63.702269,7.8025611 58.946568,9.7575038 l -0.0155,0.00568 -0.01602,0.00775 C 57.227434,10.48742 55.564852,11.424165 53.96496,12.533562 53.344857,11.13429 52.519479,9.7738569 51.581126,8.476445 49.963213,6.2394397 48.074386,4.2380732 45.678644,3.0953781 42.780129,1.6483297 39.550456,0.79027214 36.21979,0.51724094 35.383595,0.44869394 34.541354,0.41671514 33.69643,0.42112284 Z m 0.01602,5.77484126 c 3.40597,-0.00635 6.726357,0.6991783 9.427332,2.0536214 l 0.02946,0.013953 0.02739,0.013436 c 0.860799,0.4083466 2.482619,1.8485625 3.726388,3.5682575 1.157636,1.600605 2.046212,3.481767 2.331123,4.623491 -2.81231,2.784791 -5.231522,6.050832 -6.971667,9.441284 -4.327162,8.430919 -5.756713,20.088479 -5.925737,26.295035 l 0.04858,0.0016 c -0.004,0.145408 -0.0057,0.291378 -0.0057,0.437699 0,3.134909 0.91292,6.066415 2.486153,8.541598 -3.903731,-0.850391 -7.821089,-2.031229 -10.836026,-3.578642 -5.5847,-2.866342 -11.344353,-8.774176 -13.462744,-13.747998 -3.277804,-7.9859 -3.621471,-18.972202 0.714685,-27.178187 l 0.03152,-0.05633 0.02739,-0.05891 c 2.344719,-4.970459 6.938089,-8.1630389 12.244214,-9.5761599 1.989797,-0.5299204 4.064056,-0.7899373 6.107637,-0.79375 z m 40.940654,6.3784219 c 4.76996,0.04642 9.567491,1.044129 13.670483,3.212207 l 0.05839,0.03152 0.05839,0.02739 c 4.970454,2.344715 8.161488,6.938087 9.574609,12.244213 1.413122,5.306125 0.909306,11.215477 -1.257804,15.537037 l -0.01395,0.02739 -0.01344,0.02739 c -0.408346,0.8608 -1.848563,2.482618 -3.568258,3.726387 -1.641669,1.187337 -3.578355,2.09158 -4.70979,2.351795 -2.836931,-2.916925 -6.194483,-5.426588 -9.68313,-7.217131 -8.430908,-4.327163 -20.088469,-5.758781 -26.295026,-5.927805 l -0.001,0.02946 c -0.02429,-1.1e-4 -0.04855,0 -0.07286,0 -3.127812,0 -6.052907,0.908614 -8.524544,2.475301 0.845585,-3.820252 2.008003,-7.634539 3.522265,-10.584883 2.866342,-5.5847 8.776243,-11.344355 13.750065,-13.462745 3.99295,-1.638902 8.735676,-2.543938 13.505636,-2.497522 z M 52.399681,42.419593 c 5.681166,0 10.224699,4.543535 10.224699,10.224699 0,5.681165 -4.543533,10.224699 -10.224699,10.224699 -5.681166,0 -10.224699,-4.543534 -10.224699,-10.224699 0,-5.681164 4.543533,-10.224699 10.224699,-10.224699 z m 13.595036,1.812809 c 3.673229,0.837073 7.31119,1.968998 10.149251,3.425631 5.584168,2.866067 11.343858,8.772406 13.462744,13.745931 3.279079,7.986181 3.621562,18.972605 -0.715202,27.179736 l -0.03101,0.0584 -0.02739,0.05891 c -2.344718,4.970459 -6.938089,8.160972 -12.244214,9.574092 -5.306125,1.413121 -11.213409,0.909304 -15.534969,-1.257804 l -0.02946,-0.01344 -0.02739,-0.01395 c -0.860798,-0.408346 -2.482619,-1.848562 -3.726388,-3.568258 -0.924021,-1.277597 -1.676659,-2.73362 -2.087728,-3.849894 2.934178,-2.84521 5.458621,-6.217639 7.257439,-9.722404 4.277207,-8.333592 5.723478,-19.819832 5.919535,-26.077995 0.02622,-0.372459 0.03979,-0.748212 0.03979,-1.127063 0,-3.080351 -0.881825,-5.964258 -2.405021,-8.41189 z m -49.75717,11.774475 c 2.728799,2.703675 5.899914,5.030042 9.187553,6.71742 8.430919,4.327162 20.088479,5.756713 26.295036,5.925736 l 5.17e-4,-0.02015 c 0.225242,0.0095 0.451545,0.01447 0.679028,0.01447 3.14072,0 6.076959,-0.916338 8.555033,-2.494938 -0.853516,3.982511 -2.050221,7.998268 -3.629236,11.074776 -2.866066,5.584164 -8.772924,11.343857 -13.746447,13.462744 -7.986177,3.279078 -18.972091,3.622075 -27.17922,-0.714685 l -0.05891,-0.03101 -0.05839,-0.02739 C 11.312034,87.569214 8.1215338,82.975763 6.708413,77.669638 5.2952921,72.363512 5.7991084,66.45623 7.9662174,62.134669 l 0.013436,-0.02946 0.013436,-0.02739 C 8.4014361,61.21702 9.8421678,59.5952 11.561863,58.351431 c 1.625426,-1.175588 3.539779,-2.074331 4.675684,-2.34456 z" />
  </g>
</svg>
