<?xml version="1.0" encoding="UTF-8" standalone="no"?>
<!-- Created with Inkscape (http://www.inkscape.org/) -->

<svg
   width="120mm"
   height="120mm"
   viewBox="0 0 120 120"
   version="1.1"
   id="svg1"
   sodipodi:docname="fan_first_good_attempt3_converted.svg"
   inkscape:version="1.4.2 (f4327f4, 2025-05-13)"
   xmlns:inkscape="http://www.inkscape.org/namespaces/inkscape"
   xmlns:sodipodi="http://sodipodi.sourceforge.net/DTD/sodipodi-0.dtd"
   xmlns="http://www.w3.org/2000/svg"
   xmlns:svg="http://www.w3.org/2000/svg">
  <sodipodi:namedview
     id="namedview1"
     pagecolor="#505050"
     bordercolor="#eeeeee"
     borderopacity="1"
     inkscape:showpageshadow="0"
     inkscape:pageopacity="0"
     inkscape:pagecheckerboard="0"
     inkscape:deskcolor="#505050"
     inkscape:document-units="mm"
     inkscape:zoom="1.4724792"
     inkscape:cx="229.54484"
     inkscape:cy="257.7286"
     inkscape:window-width="3840"
     inkscape:window-height="2061"
     inkscape:window-x="3829"
     inkscape:window-y="-11"
     inkscape:window-maximized="1"
     inkscape:current-layer="layer1" />
  <defs
     id="defs1">
    <inkscape:path-effect
       effect="bspline"
       id="path-effect20"
       is_visible="true"
       lpeversion="1.3"
       weight="33.333333"
       steps="2"
       helper_size="0"
       apply_no_weight="true"
       apply_with_weight="true"
       only_selected="false"
       uniform="false" />
    <inkscape:path-effect
       effect="fillet_chamfer"
       id="path-effect19"
       nodesatellites_param="F,0,0,1,0,0,0,1 @ F,0,0,1,0,0,0,1 @ F,0,0,1,0,0,0,1 @ F,0,0,1,0,0,0,1"
       is_visible="true"
       lpeversion="1"
       radius="0"
       unit="px"
       method="auto"
       mode="F"
       chamfer_steps="1"
       flexible="false"
       use_knot_distance="true"
       apply_no_radius="true"
       apply_with_radius="true"
       only_selected="false"
       hide_knots="false" />
  </defs>
  <g
     inkscape:label="Layer 1"
     inkscape:groupmode="layer"
     id="layer1">
    <path
       id="path26"
       style="baseline-shift:baseline;display:inline;overflow:visible;vector-effect:none;fill:#ffffff;enable-background:accumulate;stop-color:#000000;stop-opacity:1;opacity:1"
       d="M 40.304517 5.3671143 C 32.603116 5.5036887 24.958897 9.33463 19.763652 17.228406 C 17.887829 19.941428 15.954768 24.163588 15.045076 29.3672 C 14.132098 34.589605 14.339026 40.811797 17.277498 46.804895 L 17.296619 46.845719 L 17.316256 46.884993 C 19.463985 50.999007 22.207653 54.251755 25.277527 57.002205 C 18.722208 57.549332 12.44543 60.336224 8.937439 66.12878 L 8.9353719 66.130847 L 8.9338216 66.134981 C 2.2695715 77.185174 4.4842409 91.783267 17.122986 100.10138 C 19.836008 101.97721 24.058167 103.91079 29.26178 104.82048 C 34.484185 105.73346 40.707926 105.52653 46.701025 102.58805 L 46.740299 102.56842 L 46.779057 102.54878 C 50.844986 100.42609 54.070191 97.721429 56.800151 94.694995 C 57.335564 101.27155 60.12161 107.57715 65.931376 111.09554 L 65.93551 111.09761 L 65.937577 111.09761 C 76.987766 117.76186 91.58637 115.54667 99.904496 102.90793 C 101.78032 100.19491 103.71337 95.973268 104.62307 90.769653 C 105.53604 85.547246 105.3312 79.325058 102.39272 73.331958 L 102.37308 73.291134 L 102.35138 73.25186 C 100.19799 69.127074 97.446463 65.867971 94.367367 63.112944 C 100.98319 62.599565 107.33911 59.814291 110.87695 53.972416 L 110.87695 53.970866 L 110.87902 53.966732 C 117.54322 42.916584 115.32809 28.317935 102.68934 19.999813 C 99.976318 18.12399 95.754158 16.19093 90.550545 15.281238 C 89.244944 15.052994 87.876396 14.895324 86.465007 14.83217 C 82.23084 14.642709 77.608191 15.309805 73.113367 17.51366 L 73.072026 17.533297 L 73.033268 17.552934 C 68.899928 19.710753 65.635937 22.470245 62.877299 25.557613 C 62.365277 18.939386 59.580088 12.579836 53.736255 9.0407918 L 53.734188 9.0392415 L 53.73057 9.0392415 C 49.582031 6.5372754 44.933852 5.2850191 40.304517 5.3671143 z M 40.415621 12.094869 C 43.673734 12.113621 46.982461 13.142571 50.117354 15.033191 C 53.756203 17.240136 55.625217 21.262972 55.927852 26.535331 C 56.052312 28.7036 55.68036 31.797911 55.076225 34.420121 C 54.47209 37.042331 53.254405 39.537208 53.404492 39.345919 L 53.430847 39.366589 C 51.381795 42.791983 49.274875 46.297408 46.753735 49.789209 L 46.778023 49.806779 C 44.838556 52.288786 43.580668 55.34214 43.318803 58.698226 C 43.265018 59.387538 43.254892 60.070757 43.28573 60.745129 C 42.585848 60.231008 41.860385 59.82699 41.093099 59.491459 C 39.174971 58.343711 37.346496 57.235054 35.636584 56.103552 C 30.468342 52.683567 26.426734 49.172436 23.551017 43.689323 C 21.413217 39.308295 21.221399 34.690244 21.941296 30.572294 C 22.662979 26.444133 24.385096 22.83899 25.535392 21.181653 L 25.560714 21.144446 L 25.586035 21.105688 C 29.695786 14.838528 34.985432 12.063616 40.415621 12.094869 z M 86.175102 21.825024 C 87.255599 21.874906 88.315963 21.998 89.345451 22.177974 C 93.473612 22.899657 97.078752 24.621257 98.736092 25.771554 L 98.773299 25.796875 L 98.812573 25.822196 C 108.84002 32.397796 109.92619 41.991732 104.88455 50.351449 C 102.67778 53.991157 98.655927 55.861342 93.382931 56.164014 C 91.214662 56.288474 88.12035 55.916521 85.49814 55.312386 C 82.87593 54.708251 80.381054 53.490566 80.572343 53.640653 L 80.55684 53.660291 C 77.277967 51.699232 73.92547 49.686109 70.582255 47.307707 C 68.013076 45.129683 64.76781 43.707693 61.174561 43.427323 C 60.508194 43.375329 59.847326 43.363989 59.194836 43.39115 C 60.795018 40.715895 62.283624 38.18624 63.814193 35.873263 C 67.234178 30.705021 70.745309 26.662896 76.228422 23.787179 C 79.514193 22.183828 82.933609 21.675379 86.175102 21.825024 z M 59.414461 50.385555 C 59.814056 50.367645 60.219856 50.374232 60.629891 50.406226 C 62.712461 50.568722 64.578998 51.366458 66.055916 52.595756 L 66.017676 52.648466 C 66.185941 52.769956 66.354158 52.890674 66.522038 53.010201 C 68.542321 54.928763 69.700073 57.71205 69.463977 60.737895 C 69.047782 66.0719 64.468382 69.99076 59.134375 69.574565 C 53.800369 69.15837 49.88151 64.576384 50.297705 59.242379 C 50.457632 57.192742 51.232964 55.352118 52.429358 53.886117 L 52.429875 53.886633 C 52.43208 53.883579 52.433872 53.880385 52.436076 53.877332 C 54.113821 51.826483 56.617301 50.510928 59.414461 50.385555 z M 76.48267 59.395341 C 79.169101 61.002395 81.709355 62.496966 84.031047 64.033301 C 89.202105 67.455149 93.246807 70.967025 96.122815 76.455282 C 98.256921 80.833918 98.447858 85.449131 97.728402 89.564559 C 97.006719 93.692721 95.285121 97.297858 94.134823 98.9552 L 94.107434 98.992407 L 94.082113 99.031165 C 87.508123 109.05616 77.916816 110.1447 69.558545 105.10728 L 69.554928 105.10521 L 69.554411 105.10521 L 69.553894 105.1047 L 69.553377 105.10418 L 69.552861 105.10366 C 65.914015 102.89672 64.042931 98.87389 63.740295 93.601522 C 63.615837 91.433255 63.989338 88.338942 64.593473 85.716732 C 65.041961 83.7701 65.829059 81.89348 66.14325 81.134066 C 68.267861 77.582137 70.439453 73.940033 73.05859 70.312504 L 72.942318 70.228271 C 74.905708 67.736498 76.179096 64.663239 76.442879 61.282564 C 76.492421 60.647625 76.505065 60.017785 76.48267 59.395341 z M 28.207581 63.933049 C 30.115504 64.013454 32.348044 64.33571 34.314701 64.78881 C 36.21923 65.227597 38.056423 65.990377 38.846208 66.317399 C 42.361703 68.420124 45.96417 70.573152 49.552531 73.16401 L 49.63728 73.046704 C 52.130181 75.013338 55.206093 76.289455 58.589705 76.553467 C 59.290159 76.608121 59.984205 76.617679 60.669165 76.584989 C 60.1079 77.320025 59.673211 78.081651 59.315759 78.889758 C 58.192845 80.764887 57.106401 82.553647 55.998132 84.228451 C 52.577631 89.397472 49.066373 93.440805 43.581836 96.316602 C 39.201998 98.452567 34.585636 98.643418 30.468941 97.923739 C 26.340781 97.202056 22.735637 95.480457 21.0783 94.33016 L 21.039026 94.304838 L 21.001819 94.279517 C 10.974362 87.703916 9.8861182 78.109465 14.927771 69.749748 C 17.134545 66.110032 21.156916 64.240371 26.429911 63.937699 C 26.971979 63.906585 27.571606 63.906247 28.207581 63.933049 z " />
  </g>
</svg>
